<svg width="128" height="128" viewBox="0 0 128 128" fill="none" xmlns="http://www.w3.org/2000/svg">
<path d="M105.05 26.8253L49.5636 84.144L119.296 53.4041C117.234 43.2307 112.183 34.0866 105.05 26.8253Z" fill="#D9411E"/>
<path d="M63.8818 8.98004C56.1972 8.98004 48.8739 10.4621 42.1943 13.1362L34.7462 73.3791L71.9538 9.54135C69.3135 9.17555 66.6272 8.98004 63.8818 8.98004Z" fill="#D9411E"/>
<path d="M119.854 58.0954L53.7737 92.4065L115.769 85.5809C118.711 79.2367 120.34 72.2526 120.34 64.9089C120.34 62.5992 120.163 60.326 119.854 58.0954Z" fill="#D9411E"/>
<path d="M95.4934 109.562C102.876 105.246 109.004 99.4614 113.332 92.6955L55.2251 102.654L95.4934 109.562Z" fill="#D9411E"/>
<path d="M75.3561 10.1491L43.0087 77.5891L103.007 24.2007C95.4869 17.2381 85.9699 12.2594 75.3561 10.1491Z" fill="#D9411E"/>
<path d="M68.6041 119.02C74.8569 118.668 80.814 117.634 86.3246 116.012L53.7736 113.391L68.6041 119.02Z" fill="#D9411E"/>
<path d="M12.4216 42.2271C9.87981 47.406 8.23124 53.0326 7.65983 58.9435L16.4281 73.379L12.4216 42.2271Z" fill="#D9411E"/>
<path d="M37.3011 15.6269C29.3342 19.6967 22.5166 25.5287 17.4067 32.5898L25.5904 71.9275L37.3011 15.6269Z" fill="#D9411E"/>
</svg>
