<svg width="128" height="64" viewBox="0 0 128 64" fill="none" xmlns="http://www.w3.org/2000/svg">
<g clip-path="url(#clip0_2_91)">
<mask id="mask0_2_91" style="mask-type:luminance" maskUnits="userSpaceOnUse" x="0" y="22" width="31" height="42">
<path d="M0 22.6989H30.8958V63.725H0V22.6989Z" fill="white"/>
</mask>
<g mask="url(#mask0_2_91)">
<path d="M25.7013 44.1779C24.2211 43.4113 22.5512 42.8706 20.7359 42.5702C18.9503 42.277 17.1375 42.1304 15.342 42.1304C13.874 42.1304 12.3913 42.0054 10.9283 41.7627C9.50715 41.5248 8.21901 41.0898 7.09835 40.4674C6.00724 39.8618 5.10578 39.0158 4.41615 37.9488C3.73636 36.8986 3.394 35.5072 3.394 33.8273C3.42602 32.3446 3.77823 31.0781 4.44324 30.0567C5.1181 29.021 5.99739 28.1798 7.05894 27.555C8.14758 26.9158 9.40371 26.4447 10.7928 26.1563C13.1573 25.6661 15.6548 25.5748 18.1991 25.9208C19.1941 26.0578 20.1744 26.3005 21.1202 26.6394C22.0463 26.9758 22.9182 27.4348 23.7088 28.0044C24.4871 28.5668 25.1767 29.2733 25.7555 30.1024L26.0782 30.5662L28.4673 29.5857L27.9599 28.8888C27.3097 27.9924 26.5905 27.1849 25.8196 26.4904C25.0339 25.7815 24.1102 25.1782 23.0733 24.7024C22.0487 24.2314 20.8788 23.8685 19.5906 23.6234C18.3173 23.3831 16.8321 23.2605 15.177 23.2605C13.5883 23.2605 11.948 23.4383 10.3027 23.7892C8.63279 24.1449 7.08357 24.7361 5.69937 25.5411C4.28561 26.3654 3.12061 27.4637 2.23394 28.8071C1.33741 30.1721 0.879288 31.8567 0.879288 33.8129C0.879288 35.8677 1.30292 37.6172 2.13542 39.011C2.96544 40.3977 4.07625 41.52 5.43829 42.3467C6.77323 43.159 8.32984 43.7429 10.0663 44.0818C11.7608 44.4134 13.5366 44.5816 15.342 44.5816C16.7779 44.5816 18.2976 44.6874 19.8591 44.8989C21.3788 45.1031 22.795 45.5165 24.0634 46.1269C25.2999 46.7229 26.3319 47.552 27.1274 48.5902C27.8959 49.5971 28.285 50.9549 28.285 52.6276C28.285 54.1295 27.9082 55.4104 27.1693 56.439C26.4058 57.4988 25.4132 58.3736 24.2186 59.0393C22.9994 59.7194 21.6202 60.2216 20.1153 60.5269C18.5857 60.8393 17.0735 60.9979 15.6178 60.9979C13.177 60.9979 10.7633 60.5437 8.4456 59.6449C6.14024 58.7509 4.0935 57.4099 2.36694 55.658L1.90389 55.187L0 56.7971L0.534469 57.3186C2.23886 58.9816 4.35457 60.4307 6.82495 61.6251C9.32243 62.8363 12.2829 63.4491 15.6178 63.4491C17.204 63.4491 18.8887 63.2737 20.6226 62.9228C22.3812 62.5696 24.0339 61.964 25.5289 61.1204C27.0486 60.2649 28.3121 59.1474 29.2875 57.7944C30.2899 56.4054 30.7973 54.6679 30.7973 52.6276C30.7973 50.5608 30.3219 48.8089 29.381 47.4246C28.455 46.0572 27.2161 44.9662 25.7013 44.1779Z" fill="#E6E1E1"/>
</g>
<mask id="mask1_2_91" style="mask-type:luminance" maskUnits="userSpaceOnUse" x="33" y="33" width="31" height="31">
<path d="M33.4179 33.4179H63.0526V63.725H33.4179V33.4179Z" fill="white"/>
</mask>
<g mask="url(#mask1_2_91)">
<path d="M48.1663 61.2936C46.4422 61.2936 44.8684 60.9504 43.4842 60.271C42.0802 59.5845 40.8414 58.6501 39.802 57.4916C38.7552 56.3283 37.9252 54.9672 37.3316 53.4464C36.7355 51.9184 36.3957 50.3165 36.3267 48.7147C36.3267 47.232 36.6124 45.7183 37.169 44.2118C37.7281 42.71 38.5409 41.3418 39.5877 40.1427C40.6295 38.9485 41.898 37.9616 43.361 37.2036C44.7969 36.4575 46.4127 36.0809 48.1663 36.0809C49.814 36.0809 51.3707 36.4336 52.7918 37.1297C54.2351 37.8353 55.5011 38.7816 56.5626 39.9401C57.6242 41.1058 58.4739 42.4669 59.0848 43.9877C59.6956 45.5061 60.0034 47.0985 60.0034 48.7147C60.0034 50.195 59.7202 51.7086 59.1611 53.2151C58.602 54.7193 57.7892 56.0875 56.7449 57.2842C55.7031 58.476 54.4371 59.4558 52.9765 60.1947C51.5406 60.9241 49.9224 61.2936 48.1663 61.2936ZM58.6192 38.486C57.368 37.0725 55.8484 35.9021 54.1021 35.0106C52.3312 34.1071 50.3337 33.6494 48.1663 33.6494C46.191 33.6494 44.3043 34.0571 42.5581 34.8651C40.8241 35.6661 39.2921 36.7721 38.004 38.1499C36.7183 39.523 35.6888 41.1391 34.9425 42.9555C34.1937 44.772 33.8144 46.7099 33.8144 48.7147C33.8144 50.6073 34.1642 52.4619 34.8563 54.2235C35.5435 55.9827 36.5262 57.5798 37.7725 58.9719C39.0237 60.3711 40.5458 61.5129 42.2945 62.3687C44.058 63.2316 46.0309 63.6893 48.154 63.725H48.1786C50.1884 63.6893 52.0899 63.2507 53.8337 62.4283C55.5627 61.6107 57.0947 60.4951 58.3853 59.1173C59.6685 57.7442 60.6882 56.1448 61.4172 54.3665C62.1463 52.5811 62.5157 50.6789 62.5157 48.7147C62.5157 46.934 62.1758 45.12 61.5083 43.3226C60.8384 41.5253 59.8655 39.8972 58.6192 38.486Z" fill="#E6E1E1"/>
</g>
<mask id="mask2_2_91" style="mask-type:luminance" maskUnits="userSpaceOnUse" x="66" y="22" width="12" height="42">
<path d="M66.8358 22.0684H77.5547V63.725H66.8358V22.0684Z" fill="white"/>
</mask>
<g mask="url(#mask2_2_91)">
<path d="M75.5252 60.5855C75.1041 60.6889 74.7321 60.7659 74.4218 60.8164C74.0942 60.8717 73.742 60.9246 73.3603 60.9775C73.008 61.0256 72.6608 61.052 72.3258 61.052C71.4835 61.052 70.8628 60.7779 70.4293 60.2177C69.949 59.5998 69.715 58.9842 69.715 58.3399V22.433H67.2028V58.3399C67.2028 59.6863 67.6387 60.8789 68.4983 61.8815C69.3899 62.9226 70.6584 63.4492 72.2716 63.4492C72.7765 63.4492 73.279 63.4203 73.7642 63.365C74.2322 63.3097 74.6509 63.2544 75.0277 63.1991C75.4119 63.1438 75.8577 63.0572 76.3528 62.9466L77.205 62.7543L76.0868 60.4485L75.5252 60.5855Z" fill="#E6E1E1"/>
</g>
<path d="M86.3673 36.1095C85.0619 36.9976 83.9068 38.1263 82.9191 39.4764V34.0903H80.4069V63.1733H82.9191V45.0673C83.2664 43.8815 83.7467 42.7671 84.3452 41.7599C84.9487 40.7432 85.6974 39.8479 86.5742 39.1002C87.4511 38.3525 88.4707 37.7477 89.6086 37.2977C90.7416 36.8476 92.0224 36.5857 93.4115 36.519L94.079 36.4857V34.0903H93.377C90.6973 34.0903 88.3402 34.7689 86.3673 36.1095Z" fill="#E6E1E1"/>
<path d="M122.265 6.69196L101.458 28.1865L127.608 16.659C126.834 12.844 124.94 9.41496 122.265 6.69196Z" fill="#DA3522"/>
<path d="M106.827 0C103.946 0 101.199 0.555789 98.6946 1.55857L95.9016 24.1496L109.854 0.21049C108.864 0.073317 107.857 0 106.827 0Z" fill="#DA3522"/>
<mask id="mask3_2_91" style="mask-type:luminance" maskUnits="userSpaceOnUse" x="102" y="18" width="26" height="14">
<path d="M102.776 18.2852H127.999V31.7874H102.776V18.2852Z" fill="white"/>
</mask>
<g mask="url(#mask3_2_91)">
<path d="M127.817 18.4182L103.037 31.2849L126.285 28.7253C127.388 26.3462 127.999 23.7272 127.999 20.9733C127.999 20.1071 127.933 19.2547 127.817 18.4182Z" fill="#DA3522"/>
</g>
<path d="M118.682 37.7183C121.45 36.0998 123.748 33.9305 125.371 31.3933L103.581 35.1279L118.682 37.7183Z" fill="#DA3522"/>
<path d="M111.13 0.438416L99 25.7284L121.499 5.70776C118.679 3.09678 115.11 1.22976 111.13 0.438416Z" fill="#DA3522"/>
<path d="M108.598 41.265C110.943 41.1329 113.177 40.7452 115.243 40.1369L103.037 39.1542L108.598 41.265Z" fill="#DA3522"/>
<path d="M87.5299 12.4677C86.5767 14.4098 85.9585 16.5197 85.7442 18.7363L89.0323 24.1496L87.5299 12.4677Z" fill="#DA3522"/>
<path d="M96.8597 2.49255C93.8721 4.01875 91.3155 6.20575 89.3993 8.85366L92.4682 23.6053L96.8597 2.49255Z" fill="#DA3522"/>
</g>
<defs>
<clipPath id="clip0_2_91">
<rect width="128" height="64" fill="white"/>
</clipPath>
</defs>
</svg>
